<?xml version="1.0" encoding="iso-8859-1"?>
<!-- Generator: Adobe Illustrator 19.0.0, SVG Export Plug-In . SVG Version: 6.00 Build 0)  -->
<svg xmlns="http://www.w3.org/2000/svg" xmlns:xlink="http://www.w3.org/1999/xlink" version="1.1" id="Layer_1" x="0px" y="0px" viewBox="0 0 512 512" style="enable-background:new 0 0 512 512;" xml:space="preserve" width="512" height="512">
<g>
	<path d="M390.172,270.319L512,147.934L364.066,0L241.763,121.745c-30.678,3.195-59.11,16.685-81.222,38.796   c-22.679,22.679-35.577,51.486-38.713,81.14L0,364.066L147.934,512l122.304-121.745c30.678-3.195,59.11-16.685,81.222-38.796   C374.138,328.781,387.036,299.974,390.172,270.319z M351.459,160.541c-19.165-19.165-43.078-31.856-69.086-36.979l37.267-37.267   L425.706,192.36l-37.34,37.34C383.367,204.341,371.068,180.15,351.459,160.541z M470.133,147.934l-23.214,23.213L340.853,65.082   l23.214-23.213L470.133,147.934z M160.541,351.459c19.165,19.165,43.078,31.856,69.086,36.979l-37.267,37.267L86.294,319.64   l37.34-37.34C128.633,307.659,140.932,331.85,160.541,351.459z M41.867,364.066l23.214-23.213l106.066,106.066l-23.214,23.213   L41.867,364.066z M256,361c-28.047,0-54.414-10.922-74.246-30.753c-40.939-40.94-40.939-107.553,0-148.493   C201.586,161.922,227.953,151,256,151s54.414,10.922,74.246,30.753c40.939,40.94,40.939,107.553,0,148.493   C310.414,350.078,284.047,361,256,361z"/>
	<polygon points="241,249.787 241,297 271,297 271,262.213 319.64,213.573 298.427,192.36  "/>
</g>















</svg>
