<svg height="504pt" viewBox="0 -9 504.61888 504" width="504pt" xmlns="http://www.w3.org/2000/svg"><path d="m478.425781 235.363281h-59.914062l15.210937-67.332031c.925782.039062 1.851563.234375 2.777344.234375 35.773438.285156 65.570312-27.359375 67.964844-63.054687 2.394531-35.695313-23.445313-67.070313-58.9375-71.566407-35.492188-4.496093-68.335938 19.449219-74.914063 54.613281l-.042969.21875c-4.875 25.609376 5.488282 51.730469 26.589844 67.035157l-21.21875 44.628906c-8.457031-46.992187-48.953125-81.453125-96.691406-82.285156h-2.265625c-20.566406-.15625-40.660156 6.167969-57.425781 18.082031-4.632813-3.242188-9.503906-6.136719-14.570313-8.648438 7.847657-13.277343 11.175781-28.738281 9.476563-44.066406.183594-.042968.359375-.054687.542968-.101562 19.078126-4.507813 32.492188-21.625 32.3125-41.226563-.179687-19.601562-13.90625-36.46875-33.0625-40.625-19.160156-4.160156-38.640624 5.5-46.933593 23.261719-35.027344-13.238281-74.589844-3.710938-99.746094 24.023438-14.480469-11.175782-34.535156-11.664063-49.546875-1.214844-15.007812 10.453125-21.503906 29.433594-16.042969 46.890625 5.460938 17.457031 21.613281 29.355469 39.902344 29.390625 3.339844-.003906 6.667969-.402344 9.910156-1.183594.183594-.046875.335938-.117188.519531-.160156 5.472657 14.414062 15.472657 26.667968 28.5 34.914062-3.71875 5.019532-7.019531 10.335938-9.878906 15.890625-30.355468-8.839843-58.023437-2.105469-66.082031 16.878907-6.042969 14.300781.511719 31.519531 15.90625 45.847656-11.996094 2.136718-20.7382812 12.550781-20.765625 24.734375v134.296875c.0585938 50.964844 41.359375 92.269531 92.328125 92.324218h318.949219c50.96875-.054687 92.269531-41.359374 92.328125-92.324218v-134.296875c-.015625-13.902344-11.277344-25.164063-25.179688-25.179688zm-63.992187-179.574219c17.179687-8.359374 37.609375-6.265624 52.734375 5.398438 15.128906 11.667969 22.34375 30.894531 18.625 49.628906l-3.71875.972656c-3.28125.863282-6.757813-.339843-8.804688-3.042968l-4.761719-6.269532c-6.140624-8.101562-16.5625-11.710937-26.402343-9.136718l-7.621094 1.984375c-3.28125.863281-6.757813-.339844-8.804687-3.042969l-4.777344-6.277344c-6.140625-8.09375-16.546875-11.699218-26.378906-9.136718l-2.398438.625c4.925781-9.433594 12.746094-17.039063 22.308594-21.703126zm-28.074219 40.539063 12.386719-3.214844c3.277344-.859375 6.753906.34375 8.796875 3.050781l4.777343 6.277344c6.140626 8.105469 16.558594 11.707032 26.394532 9.132813l7.621094-1.988281c3.28125-.875 6.765624.332031 8.804687 3.046874l4.769531 6.273438c4.429688 5.796875 11.175782 9.367188 18.464844 9.769531-12.507812 19.355469-36.640625 27.621094-58.390625 20.003907-21.925781-7.625-35.808594-29.238282-33.625-52.351563zm28.132813 68.210937c.871093.300782 1.773437.414063 2.652343.679688l-15.847656 70.144531h-23.507813l34.160157-71.847656c.851562.335937 1.667969.722656 2.542969 1.023437zm-137.425782 32.828126.265625-.085938.082031-.027344c22.773438-8.652344 50.015626-8.089844 80.929688 1.503906 3.109375 11.972657 3.40625 24.5.867188 36.605469h-127.683594c8.023437-12.378906 18.628906-22.875 31.085937-30.773437 4.5625-2.894532 9.402344-5.3125 14.453125-7.222656zm-38.65625-53.355469c11.917969-6.183594 25.148438-9.394531 38.574219-9.371094h2.148437c30.335938.71875 57.898438 17.828125 72.007813 44.691406-26.296875-7.496093-54.273437-6.671875-80.082031 2.367188l-.214844.09375-.125.054687c-5.945312 2.269532-11.652344 5.125-17.03125 8.527344-17.542969 11.207031-31.953125 26.6875-41.875 44.988281h-16.871094c-1.207031-5.515625-1.839844-11.140625-1.890625-16.789062-.078125-25.65625 11.667969-49.917969 31.84375-65.769531 4.1875-3.390626 8.71875-6.335938 13.515625-8.792969zm-164.660156 91.351562c-.472656-16.691406 2.671875-33.289062 9.21875-48.652343 3.410156-7.78125 7.800781-15.09375 13.066406-21.757813 9.980469 3.804687 20.570313 5.746094 31.25 5.726563 7.359375-.011719 14.691406-.890626 21.847656-2.621094 17.648438-4.148438 33.621094-13.558594 45.804688-26.988282 3.832031 1.761719 7.542969 3.78125 11.105469 6.042969-23.300781 23.019531-33.878907 55.96875-28.332031 88.25zm125.527344-217.519531c8.769531-2.167969 18.027344.527344 24.261718 7.058594 6.234376 6.535156 8.492188 15.90625 5.917969 24.566406-2.578125 8.65625-9.589843 15.269531-18.382812 17.332031-.191407.046875-.359375.058594-.542969.097657-5.441406-14.3125-15.351562-26.488282-28.261719-34.726563 3.109375-7.179687 9.40625-12.484375 17.007813-14.328125zm-170.441406 85.277344c-8.042969-4.867188-12.699219-13.816406-12.0625-23.199219.636718-9.378906 6.453124-17.621094 15.082031-21.359375 8.625-3.738281 18.617187-2.34375 25.894531 3.605469-7.734375 13.199219-11.015625 28.539062-9.351562 43.746093-.195313.054688-.328126.152344-.53125.203126-6.488282 1.582031-13.339844.5-19.03125-2.996094zm37.328124 7.21875c-3.558593-15.480469-.234374-31.742188 9.113282-44.582032 10.199218-14.292968 25.285156-24.351562 42.402344-28.261718 5.863281-1.421875 11.875-2.140625 17.910156-2.148438 11.394531-.058594 22.628906 2.691406 32.707031 8.007813 14.167969 7.175781 24.53125 20.136719 28.417969 35.535156h.007812c3.550782 15.484375.222656 31.746094-9.125 44.585937-10.195312 14.296876-25.285156 24.351563-42.402344 28.265626-17.019531 4.308593-35.027343 2.226562-50.609374-5.859376-14.171876-7.175781-24.539063-20.140624-28.421876-35.539062zm-45.851562 86.171875c3.882812-9.125 21.78125-13.6875 43.882812-7.839844-5.222656 15-7.742187 30.808594-7.441406 46.691406h-7.542968c-22.875-12.121093-32.878907-29.429687-28.898438-38.851562zm4.867188 55.636719h340.578124l.027344.003906.027344-.003906h112.613281c4.632813.003906 8.390625 3.761718 8.394531 8.394531v8.394531h-470.035156v-8.394531c.007813-4.632813 3.761719-8.390625 8.394532-8.394531zm461.640624 50.363281h-470.035156v-16.789063h470.035156zm-75.542968 167.867187h-318.949219c-41.703125-.046875-75.496094-33.839844-75.542969-75.539062v-75.542969h470.035156v75.542969c-.046874 41.699218-33.839843 75.492187-75.542968 75.539062zm0 0"/><path d="m125.238281 104.738281c1.082031 4.511719 5.613281 7.289063 10.121094 6.207031 4.511719-1.082031 7.289063-5.613281 6.207031-10.125l-1.960937-8.160156c-.699219-2.914062-2.902344-5.238281-5.777344-6.089844-2.875-.851562-5.988281-.105468-8.164063 1.960938-2.175781 2.0625-3.085937 5.132812-2.386718 8.046875zm0 0"/><path d="m104.992188 92.355469c4.507812-1.085938 7.28125-5.617188 6.195312-10.125-1.085938-4.503907-5.617188-7.277344-10.125-6.195313-4.507812 1.085938-7.28125 5.621094-6.195312 10.125.523437 2.164063 1.882812 4.035156 3.78125 5.195313 1.898437 1.164062 4.179687 1.523437 6.34375 1zm0 0"/><path d="m153.953125 80.5625c3.300781-.796875 5.796875-3.5 6.324219-6.855469.53125-3.351562-1.015625-6.695312-3.910156-8.464843-2.894532-1.773438-6.574219-1.625-9.320313.375-2.742187 1.996093-4.015625 5.449218-3.21875 8.75 1.085937 4.507812 5.617187 7.28125 10.125 6.195312zm0 0"/><path d="m303.433594 374.648438-30.367188-4.636719-13.664062-29.101563c-1.382813-2.945312-4.34375-4.828125-7.597656-4.828125-3.257813 0-6.21875 1.882813-7.601563 4.828125l-13.664063 29.101563-30.367187 4.636719c-3.109375.476562-5.691406 2.652343-6.691406 5.636718-.996094 2.980469-.242188 6.273438 1.953125 8.523438l22.222656 22.773437-5.261719 32.265625c-.519531 3.171875.820313 6.359375 3.449219 8.210938 2.628906 1.851562 6.082031 2.039062 8.894531.484375l27.066407-14.957031 27.0625 14.957031c2.816406 1.554687 6.269531 1.367187 8.894531-.484375 2.628906-1.851563 3.96875-5.039063 3.453125-8.210938l-5.265625-32.265625 22.222656-22.773437c2.199219-2.25 2.953125-5.542969 1.953125-8.523438-.996094-2.984375-3.582031-5.160156-6.691406-5.636718zm-32.457032 28.246093c-1.863281 1.90625-2.707031 4.585938-2.28125 7.214844l3.164063 19.378906-16-8.839843c-2.523437-1.398438-5.589844-1.398438-8.113281 0l-16.003906 8.839843 3.164062-19.378906c.425781-2.628906-.417969-5.308594-2.277344-7.214844l-13.773437-14.113281 18.648437-2.847656c2.765625-.425782 5.140625-2.203125 6.328125-4.734375l7.972657-16.972657 7.964843 16.972657c1.191407 2.53125 3.5625 4.308593 6.328125 4.734375l18.648438 2.847656zm0 0"/><path d="m169.140625 374.648438-30.371094-4.636719-13.664062-29.101563c-1.382813-2.945312-4.34375-4.828125-7.597657-4.828125-3.253906 0-6.214843 1.882813-7.597656 4.828125l-13.664062 29.101563-30.371094 4.636719c-3.109375.476562-5.691406 2.652343-6.6875 5.636718-1 2.980469-.246094 6.273438 1.953125 8.523438l22.21875 22.773437-5.261719 32.265625c-.515625 3.171875.824219 6.359375 3.449219 8.210938 2.628906 1.851562 6.082031 2.039062 8.894531.484375l27.066406-14.957031 27.066407 14.957031c2.8125 1.554687 6.265625 1.367187 8.894531-.484375 2.625-1.851563 3.964844-5.039063 3.449219-8.210938l-5.261719-32.265625 22.21875-22.773437c2.199219-2.25 2.953125-5.542969 1.957031-8.523438-1-2.984375-3.582031-5.160156-6.691406-5.636718zm-32.460937 28.246093c-1.859376 1.90625-2.707032 4.585938-2.277344 7.214844l3.164062 19.378906-16-8.839843c-2.523437-1.398438-5.589844-1.398438-8.117187 0l-16 8.839843 3.164062-19.378906c.425781-2.628906-.421875-5.308594-2.28125-7.214844l-13.769531-14.113281 18.648438-2.847656c2.765624-.425782 5.136718-2.203125 6.328124-4.734375l7.96875-16.972657 7.96875 16.972657c1.1875 2.53125 3.558594 4.308593 6.328126 4.734375l18.644531 2.847656zm0 0"/><path d="m437.730469 374.648438-30.371094-4.636719-13.664063-29.101563c-1.382812-2.945312-4.34375-4.828125-7.597656-4.828125s-6.214844 1.882813-7.597656 4.828125l-13.664062 29.101563-30.367188 4.636719c-3.113281.476562-5.695312 2.652343-6.691406 5.636718-1 2.980469-.246094 6.273438 1.953125 8.523438l22.21875 22.773437-5.261719 32.265625c-.515625 3.171875.824219 6.359375 3.453125 8.210938 2.625 1.851562 6.078125 2.039062 8.890625.484375l27.066406-14.957031 27.066406 14.957031c2.8125 1.554687 6.265626 1.367187 8.894532-.484375 2.625-1.851563 3.964844-5.039063 3.449218-8.210938l-5.261718-32.265625 22.222656-22.773437c2.195312-2.25 2.949219-5.542969 1.953125-8.523438-1-2.984375-3.582031-5.160156-6.691406-5.636718zm-32.460938 28.246093c-1.859375 1.90625-2.707031 4.585938-2.277343 7.214844l3.164062 19.378906-16-8.839843c-2.523438-1.398438-5.589844-1.398438-8.117188 0l-16 8.839843 3.164063-19.378906c.425781-2.628906-.417969-5.308594-2.28125-7.214844l-13.769531-14.113281 18.648437-2.847656c2.765625-.425782 5.136719-2.203125 6.328125-4.734375l7.96875-16.972657 7.96875 16.972657c1.1875 2.53125 3.5625 4.308593 6.328125 4.734375l18.644531 2.847656zm0 0"/></svg>